<?xml version="1.0" standalone="no"?>
<!DOCTYPE svg PUBLIC "-//W3C//DTD SVG 20010904//EN"
 "http://www.w3.org/TR/2001/REC-SVG-20010904/DTD/svg10.dtd">
<svg version="1.0" xmlns="http://www.w3.org/2000/svg"
 width="1280.000000pt" height="1148.000000pt" viewBox="0 0 1280.000000 1148.000000"
 preserveAspectRatio="xMidYMid meet">
<metadata>
Created by potrace 1.15, written by Peter Selinger 2001-2017
</metadata>
<g transform="translate(0.000000,1148.000000) scale(0.100000,-0.100000)"
fill="#000000" stroke="none">
<path d="M5663 11465 c-78 -17 -183 -72 -250 -130 -28 -25 -76 -82 -106 -127
-29 -46 -86 -113 -124 -149 -281 -264 -917 -532 -1505 -634 -192 -33 -323 -45
-487 -45 -263 0 -435 36 -627 130 -178 87 -248 104 -414 104 -152 0 -216 -13
-338 -70 -260 -120 -436 -362 -473 -650 -14 -114 -2 -213 46 -385 52 -184 68
-280 68 -409 0 -163 -38 -294 -117 -400 -119 -160 -316 -287 -606 -390 -209
-74 -330 -149 -455 -281 -334 -354 -365 -897 -75 -1289 67 -89 159 -176 261
-245 279 -188 409 -335 455 -516 32 -126 1 -260 -101 -439 -72 -125 -86 -174
-86 -280 0 -100 22 -172 77 -256 95 -143 281 -224 447 -195 90 16 137 37 253
117 423 289 742 221 1108 -235 142 -177 217 -241 376 -321 139 -70 271 -178
331 -271 86 -135 82 -301 -14 -516 -56 -126 -62 -150 -62 -268 0 -89 5 -123
23 -177 60 -174 202 -309 386 -366 31 -9 88 -16 146 -16 162 0 247 36 445 190
381 296 817 328 1202 88 104 -65 180 -128 303 -253 184 -188 289 -244 549
-295 287 -57 482 -151 651 -313 223 -212 333 -523 300 -845 -22 -205 -22 -232
-6 -306 56 -267 281 -451 550 -452 420 -1 691 437 503 813 -47 94 -142 196
-222 239 -28 14 -106 45 -175 68 -219 73 -355 153 -490 289 -123 124 -206 275
-252 457 -32 125 -32 392 -1 536 66 303 428 642 831 777 168 56 279 74 462 75
189 1 258 -11 440 -74 103 -36 125 -40 210 -40 52 0 120 7 150 15 242 64 419
292 420 542 0 89 -16 157 -61 250 -133 278 -480 394 -759 253 -85 -43 -185
-142 -244 -240 -130 -219 -305 -377 -556 -501 -222 -111 -498 -169 -725 -155
-196 13 -336 52 -570 159 -135 62 -199 78 -335 84 -131 6 -227 -9 -338 -53
-117 -48 -181 -93 -335 -241 -213 -204 -383 -312 -571 -363 -330 -89 -644 -11
-957 239 -59 47 -141 112 -182 143 -86 66 -156 154 -188 236 -26 67 -30 178
-10 262 18 74 79 204 146 310 70 111 101 182 127 289 21 89 21 156 2 475 -11
175 26 353 98 473 18 30 60 80 93 110 106 97 234 146 515 197 139 25 213 69
355 211 88 88 141 132 200 166 158 91 331 152 545 191 143 26 517 32 640 9
181 -33 331 -92 439 -173 75 -57 164 -94 257 -109 153 -23 315 32 428 145 204
205 207 522 6 726 -135 138 -333 188 -515 132 -94 -28 -153 -67 -260 -171 -49
-48 -110 -101 -135 -118 -231 -156 -645 -255 -1000 -239 -300 13 -505 75 -687
207 -45 33 -107 71 -137 85 -303 138 -659 -18 -766 -336 -17 -50 -24 -104 -31
-235 -17 -325 -86 -484 -261 -602 -129 -86 -359 -143 -578 -143 -153 0 -325
-50 -449 -132 -36 -23 -121 -96 -190 -161 -249 -237 -422 -327 -626 -327 -191
0 -371 92 -548 279 -118 127 -177 256 -177 392 0 91 19 160 71 257 55 104 115
177 264 326 226 227 316 401 345 671 19 177 -2 296 -104 577 -64 178 -89 305
-90 453 -1 202 51 337 182 477 74 78 237 198 271 198 9 0 56 -13 104 -29 243
-83 388 -215 454 -415 23 -73 26 -96 27 -241 0 -88 -1 -208 -2 -267 -4 -123
10 -184 65 -290 46 -88 157 -194 245 -237 292 -139 630 -23 767 261 110 230
70 472 -108 648 -92 92 -160 129 -307 169 -217 59 -328 115 -435 221 -82 81
-133 170 -160 280 -18 70 -18 344 -1 421 22 96 157 247 352 391 418 309 1134
560 1737 609 235 19 388 0 558 -68 78 -32 103 -37 195 -41 132 -6 202 11 320
76 128 71 155 82 276 112 498 128 1226 -3 1665 -299 142 -95 224 -173 323
-304 46 -62 118 -150 160 -196 262 -285 328 -527 210 -768 -37 -77 -139 -210
-183 -238 -138 -90 -436 -155 -716 -154 -337 0 -638 68 -920 209 -243 121
-407 258 -573 477 -188 249 -369 371 -632 425 -123 26 -304 21 -430 -11 -116
-30 -288 -117 -377 -191 -146 -121 -262 -297 -319 -485 -26 -83 -28 -104 -28
-260 -1 -184 9 -240 64 -378 52 -126 107 -207 219 -317 109 -108 194 -165 319
-216 188 -76 393 -91 589 -43 149 36 246 83 371 178 240 185 360 254 544 315
467 156 1056 110 1511 -119 127 -64 199 -116 317 -230 150 -142 266 -195 430
-195 152 0 286 56 396 165 119 119 171 255 161 425 -7 121 -34 201 -103 299
-213 306 -250 479 -149 696 34 75 101 168 160 225 l36 35 118 -2 c473 -6 897
-269 1106 -684 56 -111 78 -177 112 -335 23 -112 27 -152 26 -299 0 -150 -3
-181 -25 -266 -103 -383 -405 -622 -968 -767 -222 -58 -313 -97 -446 -190
-138 -97 -230 -204 -338 -390 -153 -264 -309 -434 -546 -594 -528 -357 -1294
-463 -1781 -248 -173 77 -232 93 -349 94 -191 1 -331 -56 -466 -189 -65 -64
-90 -97 -123 -165 -60 -124 -74 -192 -69 -325 8 -179 64 -310 189 -434 120
-121 252 -179 425 -188 126 -7 223 13 332 67 100 51 163 107 260 233 43 56
105 126 138 156 252 231 606 397 1009 473 164 31 535 33 690 4 226 -42 447
-128 630 -246 44 -28 109 -66 145 -84 555 -282 1239 -22 1477 560 52 128 76
254 75 404 0 145 -17 238 -69 379 -93 255 -113 315 -139 426 -25 107 -28 139
-29 300 0 159 3 190 23 260 62 218 203 403 414 543 l37 24 48 -42 c227 -198
408 -544 458 -876 30 -200 15 -360 -51 -551 -33 -96 -37 -119 -36 -203 0 -114
25 -203 83 -302 196 -334 219 -720 61 -1033 -101 -201 -236 -345 -480 -508
-196 -131 -293 -243 -373 -430 -97 -229 -328 -470 -633 -661 -415 -260 -975
-424 -1376 -402 -128 7 -202 22 -335 68 -75 26 -109 32 -205 36 -137 5 -220
-11 -325 -63 -399 -198 -498 -721 -199 -1054 57 -63 115 -106 229 -166 230
-122 377 -265 471 -460 67 -138 87 -224 87 -385 1 -161 -19 -255 -85 -407 -42
-97 -43 -99 -43 -213 0 -112 1 -117 37 -193 138 -288 502 -355 735 -134 103
97 157 256 133 396 -24 143 -93 241 -240 342 -207 141 -339 325 -396 548 -44
169 -31 382 32 549 34 91 178 364 232 441 213 302 737 616 1244 745 201 51
306 67 494 73 245 8 363 -11 569 -92 179 -71 324 -90 471 -64 400 70 684 402
684 800 0 201 -38 315 -176 522 -187 280 -255 473 -255 727 -1 327 138 603
424 842 115 95 151 138 198 230 86 169 74 384 -30 547 -57 88 -147 162 -276
227 -243 122 -422 315 -555 598 -100 212 -144 398 -144 611 -1 154 9 209 60
359 21 60 36 128 40 175 12 150 -43 305 -149 418 -70 75 -133 117 -229 151
-70 25 -82 26 -293 27 -167 1 -238 6 -295 18 -379 86 -693 324 -862 653 -79
153 -113 266 -143 466 -19 127 -44 207 -96 308 -193 372 -645 533 -1041 369
-38 -15 -88 -41 -111 -57 -23 -15 -73 -50 -112 -77 -159 -110 -380 -186 -625
-215 -110 -13 -375 -13 -498 1 -449 48 -898 227 -1095 437 -127 134 -173 174
-242 208 -130 63 -248 78 -382 49z m275 -153 c198 -76 312 -296 258 -498 -32
-120 -119 -225 -234 -281 -52 -26 -66 -28 -172 -28 -109 0 -118 2 -181 32 -83
41 -159 120 -202 210 -30 63 -32 76 -32 173 0 97 2 110 31 170 56 118 154 201
274 235 71 19 188 14 258 -13z m3302 -361 c181 -63 324 -204 387 -381 34 -99
43 -246 19 -340 -76 -304 -367 -509 -670 -470 -224 28 -415 177 -498 385 -26
68 -32 97 -36 190 -3 82 0 127 12 175 56 224 229 399 452 455 86 21 250 14
334 -14z m-6899 -567 c172 -54 313 -187 383 -364 26 -64 47 -206 40 -265 -24
-199 -114 -352 -272 -459 -327 -224 -787 -71 -919 305 -34 98 -43 245 -19 339
54 214 225 395 426 450 121 34 239 32 361 -6z m3357 -934 c379 -106 607 -497
512 -876 -34 -136 -91 -236 -195 -340 -76 -77 -104 -97 -185 -136 -133 -65
-213 -82 -358 -76 -201 8 -345 71 -489 215 -69 69 -89 98 -132 185 -64 130
-86 234 -78 363 8 116 27 191 77 290 104 208 300 353 535 395 74 13 230 3 313
-20z m5664 -291 c213 -45 367 -267 330 -477 -24 -138 -114 -255 -239 -315 -64
-30 -75 -32 -178 -32 -104 0 -114 2 -178 33 -169 83 -269 268 -237 443 44 242
267 397 502 348z m-2343 -448 c125 -39 209 -112 264 -229 30 -62 32 -75 32
-172 0 -97 -2 -110 -32 -172 -44 -94 -109 -160 -202 -206 -72 -36 -79 -37
-180 -37 -98 0 -111 2 -171 31 -134 64 -218 174 -243 318 -51 302 240 558 532
467z m-5416 -344 c128 -62 212 -176 237 -320 31 -176 -68 -365 -232 -446 -216
-107 -468 -21 -575 196 -31 63 -37 87 -41 157 -9 177 77 330 229 407 82 41
121 49 220 45 75 -3 96 -8 162 -39z m-2418 -294 c256 -65 459 -251 542 -498
25 -73 27 -94 28 -235 0 -144 -2 -161 -28 -235 -40 -115 -100 -209 -186 -296
-205 -204 -497 -274 -771 -184 -115 38 -195 90 -295 190 -152 151 -218 311
-219 525 0 139 16 209 79 335 75 153 181 261 329 336 171 85 347 107 521 62z
m6206 -693 c124 -23 229 -105 283 -220 28 -58 31 -75 31 -160 0 -85 -3 -102
-31 -160 -76 -160 -251 -253 -417 -220 -127 25 -226 99 -280 209 -30 62 -32
73 -32 171 0 94 3 111 28 161 55 114 150 190 267 215 71 16 86 16 151 4z
m-2589 -221 c215 -45 347 -217 336 -438 -5 -111 -43 -198 -120 -274 -166 -164
-421 -163 -589 3 -166 164 -169 415 -8 585 100 106 244 153 381 124z m5334
-199 c396 -94 663 -473 614 -871 -52 -431 -423 -744 -849 -716 -116 7 -197 29
-306 82 -211 102 -364 289 -427 520 -31 114 -31 299 0 408 83 292 318 519 605
581 96 21 267 19 363 -4z m2199 -114 c131 -35 226 -114 284 -236 33 -70 36
-81 35 -170 0 -75 -5 -107 -23 -153 -102 -259 -423 -350 -649 -183 -60 44
-126 137 -147 210 -22 72 -20 191 4 260 71 203 296 326 496 272z m-5916 -1107
c73 -16 152 -61 217 -121 130 -122 184 -308 139 -483 -62 -236 -301 -393 -543
-357 -280 43 -468 311 -411 584 47 224 247 387 474 387 44 1 100 -4 124 -10z
m-2944 -26 c191 -48 355 -204 421 -398 95 -286 -34 -604 -301 -737 -105 -53
-152 -63 -285 -62 -109 0 -134 4 -192 26 -102 38 -173 85 -248 165 -229 240
-222 611 15 848 157 157 369 214 590 158z m-2159 -135 c73 -26 137 -87 174
-162 66 -134 46 -275 -55 -384 -76 -82 -132 -106 -250 -107 -78 0 -97 4 -145
27 -71 35 -133 97 -168 167 -23 48 -27 69 -27 141 0 71 4 94 26 141 82 174
262 246 445 177z m7917 -908 c362 -112 399 -609 59 -778 -74 -36 -79 -37 -187
-37 -106 0 -113 1 -180 34 -87 43 -153 110 -197 198 -32 65 -33 73 -33 183 0
110 2 119 32 180 95 192 303 283 506 220z m2632 -195 c327 -68 540 -395 471
-722 -48 -227 -222 -410 -446 -468 -94 -25 -236 -23 -325 5 -244 76 -403 267
-437 526 -15 105 7 225 59 334 45 94 166 219 260 268 127 67 276 87 418 57z
m-5290 -590 c101 -33 154 -65 232 -139 73 -68 132 -160 165 -261 30 -93 33
-271 4 -355 -58 -171 -165 -299 -308 -369 -106 -52 -182 -71 -283 -71 -389 0
-681 361 -600 743 74 352 449 567 790 452z m-2685 -161 c114 -17 238 -115 293
-232 30 -63 32 -74 32 -177 0 -103 -2 -114 -32 -178 -60 -126 -175 -213 -316
-237 -180 -32 -367 70 -448 243 -31 67 -34 79 -34 172 0 92 3 106 32 168 42
89 119 169 199 208 63 30 157 50 204 43 14 -1 45 -6 70 -10z m4683 -713 c125
-49 236 -164 287 -298 34 -86 39 -221 12 -310 -38 -124 -138 -248 -243 -300
-24 -12 -84 -32 -133 -44 -80 -21 -95 -22 -170 -11 -350 50 -540 423 -374 733
58 110 154 191 278 236 57 21 79 23 175 20 84 -3 124 -9 168 -26z m-590 -1504
c243 -120 308 -423 139 -645 -39 -51 -129 -110 -200 -132 -247 -77 -496 78
-544 339 -28 148 46 316 178 407 83 58 143 74 255 71 88 -2 103 -6 172 -40z
m1118 -713 c153 -44 253 -177 252 -334 -1 -86 -18 -141 -65 -206 -41 -57 -131
-118 -199 -134 -156 -38 -334 50 -402 198 -31 67 -31 217 -1 283 73 157 252
240 415 193z"/>
</g>
</svg>
